<svg xmlns="http://www.w3.org/2000/svg" width="500" height="500" style="width:100%;height:100%;content-visibility:visible"><defs><filter id="a" filterUnits="objectBoundingBox" x="0%" y="0%" width="100%" height="100%"><feComponentTransfer in="SourceGraphic"><feFuncA type="table" tableValues="1.0 0.0"/></feComponentTransfer></filter><filter id="b" filterUnits="objectBoundingBox" x="0%" y="0%" width="100%" height="100%"><feComponentTransfer in="SourceGraphic"><feFuncA type="table" tableValues="1.0 0.0"/></feComponentTransfer></filter><clipPath id="c"><path d="M0 0h500v500H0z"/></clipPath><mask id="d"><g filter="url(#b)"><g display="block"><path fill-opacity="0" stroke="#121330" stroke-width="0" d="M250.5 409.5V602H89V409.5h161.5z"/><path fill="red" d="M80.75-96.25v192.5h-161.5v-192.5h161.5z" transform="translate(169.75 505.75)"/></g></g></mask></defs><g clip-path="url(#c)"><g mask="url(#d)" display="block"><path stroke-linecap="round" stroke-linejoin="round" stroke="#232323" stroke-width="12.04" d="M160.683 487.366h17.748c9.802 0 17.748 7.946 17.748 17.748v5.937c0 1.629-1.221 3-2.839 3.187l-6.211.718c-1.697.196-3.357.63-4.933 1.289 0 0 0 0 0 0a32.938 32.938 0 01-25.345.026l-.043-.018a19.102 19.102 0 00-5.146-1.338l-5.887-.678a3.208 3.208 0 01-2.84-3.187v-5.936c0-9.802 7.946-17.748 17.748-17.748zM169.164 437.012h.786c6.838 0 12.314 5.669 12.076 12.503l-.394 11.306c-.226 6.506-5.565 11.663-12.075 11.663 0 0 0 0 0 0-6.51 0-11.849-5.157-12.075-11.663l-.394-11.306c-.238-6.834 5.238-12.503 12.076-12.503z" fill="none"/></g><g display="block"><path stroke-linecap="round" stroke-linejoin="round" stroke="#121330" stroke-width="12.04" d="M321.683 353.366h17.748c9.802 0 17.748 7.946 17.748 17.748v5.937c0 1.629-1.221 3-2.839 3.187l-6.211.718c-1.697.196-3.357.63-4.933 1.289 0 0 0 0 0 0a32.938 32.938 0 01-25.345.026l-.043-.018a19.102 19.102 0 00-5.146-1.338l-5.887-.678a3.208 3.208 0 01-2.84-3.187v-5.936c0-9.802 7.946-17.748 17.748-17.748zM330.164 303.012h.786c6.838 0 12.314 5.669 12.076 12.503l-.394 11.306c-.226 6.506-5.565 11.663-12.075 11.663 0 0 0 0 0 0-6.51 0-11.849-5.157-12.075-11.663l-.394-11.306c-.238-6.834 5.238-12.503 12.076-12.503z" fill="none"/></g><path stroke-linecap="round" stroke-linejoin="round" stroke="#121330" stroke-width="12.04" d="M383.863 300.91h.136" fill="none" display="block"/><g display="block"><path stroke-linecap="round" stroke-linejoin="round" stroke="#121330" stroke-width="12.04" d="M321.689 217.934h17.748c9.802 0 17.748 7.946 17.748 17.748v5.937c0 1.629-1.221 3-2.839 3.187l-6.211.718c-1.697.196-3.357.63-4.933 1.289 0 0 0 0 0 0a32.938 32.938 0 01-25.345.026l-.043-.018a19.102 19.102 0 00-5.146-1.338l-5.887-.678a3.208 3.208 0 01-2.84-3.187v-5.936c0-9.802 7.946-17.748 17.748-17.748zM330.17 167.579h.786c6.838 0 12.314 5.669 12.076 12.503l-.394 11.306c-.226 6.506-5.565 11.663-12.075 11.663 0 0 0 0 0 0-6.51 0-11.849-5.157-12.075-11.663l-.394-11.306c-.238-6.834 5.238-12.503 12.076-12.503z" fill="none"/></g><path stroke-linecap="round" stroke-linejoin="round" stroke="#121330" stroke-width="12.04" d="M383.864 165.909H384" fill="none" display="block"/><path stroke-linecap="round" stroke-linejoin="round" stroke="#232323" stroke-width="12.04" d="M154.616 288.392h30.648c16.927 0 30.649 13.722 30.649 30.649v10.253a5.538 5.538 0 01-4.902 5.502l-10.725 1.241a31.463 31.463 0 00-8.52 2.226s0 0 0 0a56.874 56.874 0 01-43.768.045l-.074-.031a32.968 32.968 0 00-8.887-2.31l-10.166-1.172a5.539 5.539 0 01-4.904-5.503v-10.251c0-16.927 13.722-30.649 30.649-30.649zm14.645-79.684h1.358c11.808 0 21.263 9.79 20.853 21.591l-.679 19.525c-.391 11.235-9.612 20.14-20.853 20.14 0 0 0 0 0 0-11.241 0-20.462-8.905-20.853-20.14l-.679-19.525c-.41-11.801 9.045-21.591 20.853-21.591zM221.914 165.909h.136" fill="none" display="block"/><g display="block"><path stroke-linecap="round" stroke-linejoin="round" stroke="#121330" stroke-width="12.04" d="M387.712 410.119H112.288c-12.375 0-22.407-10.032-22.407-22.407V112.288c0-12.375 10.032-22.407 22.407-22.407h275.424c12.375 0 22.407 10.032 22.407 22.407v275.424c0 12.375-10.032 22.407-22.407 22.407zM408.119 141.254H89.881M250 141.577v268.542M410.119 275.687H251.007" fill="none"/><path stroke-linecap="round" stroke-linejoin="round" stroke="#232323" stroke-width="15.05" d="M177.864 115.567H178M121.568 115.567h.136M149.716 115.567h.136" fill="none"/></g></g></svg>